<?xml version="1.0" standalone="no"?>
<!DOCTYPE svg PUBLIC "-//W3C//DTD SVG 20010904//EN"
 "http://www.w3.org/TR/2001/REC-SVG-20010904/DTD/svg10.dtd">
<svg version="1.0" xmlns="http://www.w3.org/2000/svg"
 width="500.000000pt" height="500.000000pt" viewBox="0 0 500.000000 500.000000"
 preserveAspectRatio="xMidYMid meet">
<metadata>
Created by potrace 1.14, written by Peter Selinger 2001-2017
</metadata>
<g transform="translate(0.000000,500.000000) scale(0.100000,-0.100000)"
fill="#000000" stroke="none">
<path d="M0 2500 l0 -2500 2500 0 2500 0 0 2500 0 2500 -2500 0 -2500 0 0
-2500z m2300 1480 c0 -5 -4 -10 -10 -10 -5 0 -10 5 -10 10 0 6 5 10 10 10 6 0
10 -4 10 -10z m75 -30 c0 -8 -10 -16 -22 -18 -22 -3 -32 16 -16 32 12 11 38 2
38 -14z m-95 -20 c0 -5 -4 -10 -10 -10 -5 0 -10 5 -10 10 0 6 5 10 10 10 6 0
10 -4 10 -10z m730 -15 c19 -23 3 -55 -30 -55 -32 0 -45 22 -30 51 13 23 43
25 60 4z m-870 -15 c0 -5 -4 -10 -10 -10 -5 0 -10 5 -10 10 0 6 5 10 10 10 6
0 10 -4 10 -10z m249 -20 c-42 -4 -99 -13 -126 -19 -35 -9 -55 -9 -73 -1 -22
9 -21 10 13 6 20 -3 35 -1 32 4 -7 11 44 17 150 17 l80 0 -76 -7z m419 -20
c56 -13 90 -26 85 -31 -5 -5 -29 -3 -59 5 -75 22 -161 38 -249 47 -79 8 -79 8
25 4 62 -2 143 -12 198 -25z m-651 -6 c-3 -3 -12 -4 -19 -1 -8 3 -5 6 6 6 11
1 17 -2 13 -5z m-92 -25 c-32 -10 -61 -16 -63 -14 -5 5 88 34 108 33 8 0 -12
-8 -45 -19z m-251 -14 c3 -9 -1 -18 -10 -22 -19 -7 -39 11 -30 26 10 16 33 13
40 -4z m1116 5 c0 -5 8 -7 18 -3 12 4 14 3 7 -5 -12 -13 -58 -4 -49 9 7 12 24
11 24 -1z m-955 -20 c-27 -12 -43 -12 -25 0 8 5 22 9 30 9 10 0 8 -3 -5 -9z
m1126 -48 c63 -33 113 -64 111 -71 -1 -7 6 -11 15 -9 10 2 17 -2 16 -9 -2 -7
2 -14 7 -14 38 -5 53 -18 41 -33 -6 -7 -7 -16 -3 -21 4 -4 -3 -2 -15 4 -26 13
-31 23 -8 15 8 -4 15 -4 15 -1 0 7 -91 72 -113 80 -10 4 -16 11 -12 16 3 6 -3
9 -12 9 -24 -1 -185 77 -176 85 11 11 15 9 134 -51z m-1392 29 c13 -24 -8 -55
-34 -50 -28 6 -42 34 -26 53 18 22 48 20 60 -3z m741 13 c-216 -21 -382 -65
-555 -149 -258 -125 -482 -334 -587 -550 -22 -44 -37 -71 -34 -60 16 55 -27
-27 -63 -119 -62 -159 -83 -267 -91 -456 l-7 -165 -1 130 c-4 308 81 563 280
839 51 72 96 128 99 125 4 -2 33 21 65 51 85 80 179 145 309 210 63 32 111 61
107 65 -4 4 4 4 17 0 16 -5 21 -4 17 3 -16 26 266 80 409 79 39 0 54 -2 35 -3z
m390 -25 c91 -18 245 -66 175 -54 -25 4 -27 3 -12 -6 10 -6 27 -9 37 -6 14 4
17 1 12 -12 -5 -14 -3 -14 11 -3 12 11 20 11 34 2 14 -9 15 -10 1 -6 -9 2 -19
2 -22 -1 -3 -4 26 -24 66 -45 121 -66 219 -139 319 -238 140 -139 235 -281
306 -455 39 -95 44 -78 8 21 -41 111 -105 229 -162 302 -29 37 -58 78 -63 91
-15 35 -117 137 -172 172 -39 25 -46 34 -37 45 9 11 15 12 26 3 7 -7 11 -14 9
-17 -3 -2 16 -21 42 -42 50 -40 206 -198 184 -185 -8 4 -2 -10 12 -31 72 -110
150 -249 149 -266 -1 -10 2 -16 7 -13 6 4 7 -2 3 -11 -5 -13 -3 -15 7 -9 9 5
11 4 6 -3 -4 -6 4 -49 18 -94 45 -147 60 -259 60 -443 0 -192 -16 -304 -65
-449 -140 -420 -496 -768 -909 -890 -49 -14 -74 -26 -60 -26 21 -2 19 -3 -10
-11 -19 -4 -53 -6 -75 -4 -32 4 -35 3 -15 -4 18 -7 3 -8 -50 -6 -51 3 -64 2
-40 -4 24 -5 -2 -8 -80 -8 -63 0 -134 -3 -158 -8 -23 -4 -50 -4 -60 1 -9 4
-23 6 -31 5 -26 -5 -168 32 -286 74 -247 88 -404 184 -566 345 -207 206 -332
437 -383 709 -9 46 -15 102 -15 125 1 34 3 31 10 -22 26 -202 115 -435 226
-596 83 -118 201 -250 268 -296 26 -18 4 9 -60 74 -115 116 -182 209 -253 351
-50 100 -103 242 -101 274 0 9 2 12 4 6 2 -5 15 -48 30 -95 76 -236 247 -478
455 -642 136 -108 374 -228 422 -212 11 3 18 2 15 -3 -3 -5 2 -9 11 -10 9 0
62 -13 117 -27 338 -91 756 -3 1073 226 408 295 634 802 567 1273 -67 476
-382 880 -834 1070 -139 59 -243 84 -451 109 -19 3 13 3 73 0 59 -2 152 -13
207 -25z m-1256 13 c9 -14 -12 -35 -28 -29 -23 9 -20 37 3 37 11 0 22 -4 25
-8z m345 4 c-10 -9 -169 -86 -169 -81 0 6 151 84 164 85 5 0 7 -2 5 -4z m526
-45 c3 -5 1 -12 -5 -16 -5 -3 -10 1 -10 9 0 18 6 21 15 7z m-535 -51 c-8 -5
-19 -10 -25 -10 -5 0 -3 5 5 10 8 5 20 10 25 10 6 0 3 -5 -5 -10z m1270 -40
c30 -16 51 -29 45 -29 -5 0 -35 13 -65 29 -30 16 -50 29 -45 29 6 0 35 -13 65
-29z m-1490 16 c0 -2 -8 -10 -17 -17 -16 -13 -17 -12 -4 4 13 16 21 21 21 13z
m160 0 c0 -2 -7 -7 -16 -10 -8 -3 -12 -2 -9 4 6 10 25 14 25 6z m1107 -12 c8
-21 -13 -42 -28 -27 -13 13 -5 43 11 43 6 0 13 -7 17 -16z m-1147 -8 c0 -2 -7
-7 -16 -10 -8 -3 -12 -2 -9 4 6 10 25 14 25 6z m-160 -11 c0 -2 -10 -9 -22
-15 -22 -11 -22 -10 -4 4 21 17 26 19 26 11z m1360 -11 c0 -8 -5 -12 -10 -9
-6 4 -8 11 -5 16 9 14 15 11 15 -7z m-1260 -9 c0 -2 -10 -9 -22 -15 -22 -11
-22 -10 -4 4 21 17 26 19 26 11z m-160 -20 c-7 -9 -32 -30 -54 -47 -35 -26
-34 -24 9 15 52 48 67 58 45 32z m1385 -5 c3 -5 -1 -10 -10 -10 -9 0 -13 5
-10 10 3 6 8 10 10 10 2 0 7 -4 10 -10z m-1300 -18 c-6 -4 -31 -25 -57 -45
-26 -21 -65 -56 -87 -79 -23 -23 -41 -37 -41 -32 0 4 -26 -16 -58 -46 -32 -30
-26 -23 13 15 83 82 192 177 214 187 22 9 27 9 16 0z m-205 -85 c0 -2 -19 -21
-42 -42 l-43 -40 40 43 c36 39 45 47 45 39z m2205 -77 c13 -41 -43 -70 -64
-33 -13 25 5 53 34 53 15 0 26 -7 30 -20z m-2371 -120 c-20 -27 -38 -50 -41
-50 -5 0 31 55 55 83 29 33 22 17 -14 -33z m244 33 c-5 -26 -38 -29 -38 -4 0
15 6 21 21 21 14 0 19 -5 17 -17z m785 11 l77 -7 -1 -86 c-1 -76 -2 -82 -11
-49 -27 102 -174 142 -260 70 -60 -51 -77 -150 -35 -209 12 -17 90 -86 173
-152 205 -162 236 -202 257 -327 l11 -64 51 -1 50 -1 -34 -12 c-68 -24 -71
-35 -71 -257 l0 -199 210 0 210 0 0 79 c0 82 -11 129 -42 173 l-18 26 25 -11
c17 -9 27 -25 36 -59 6 -27 15 -46 19 -43 5 3 4 -11 -1 -30 -6 -20 -9 -57 -7
-83 l3 -47 47 -3 47 -3 0 213 c0 305 21 363 149 420 24 11 46 18 48 15 2 -2
-14 -22 -35 -45 -74 -78 -75 -89 -76 -589 0 -438 0 -443 21 -464 12 -11 37
-25 55 -29 22 -5 -23 -8 -121 -8 -98 0 -143 3 -121 8 18 4 43 18 55 29 20 20
21 33 24 216 l3 195 -265 0 -266 0 0 -192 c0 -270 -13 -338 -77 -402 -29 -30
-111 -72 -120 -62 -3 3 12 25 35 50 22 24 46 61 53 82 16 48 26 834 11 834 -5
0 -15 -6 -21 -14 -21 -25 -108 -56 -178 -62 -272 -25 -435 236 -285 459 38 56
44 44 11 -20 -56 -111 -49 -225 18 -303 68 -79 176 -108 286 -76 94 27 180
127 150 174 -5 9 -25 21 -44 28 l-34 12 53 1 52 1 -6 43 c-9 56 -45 125 -86
163 -18 17 -91 77 -163 134 -71 56 -139 114 -151 129 -90 112 -29 296 113 347
44 15 71 16 176 8z m1413 -25 c3 -6 0 -17 -7 -25 -18 -17 -44 -2 -36 20 7 18
33 21 43 5z m-2166 -19 c0 -5 -4 -10 -10 -10 -5 0 -10 5 -10 10 0 6 5 10 10
10 6 0 10 -4 10 -10z m-230 -14 c0 -2 -8 -10 -17 -17 -16 -13 -17 -12 -4 4 13
16 21 21 21 13z m2315 -16 c10 -11 16 -20 13 -20 -3 0 -13 9 -23 20 -10 11
-16 20 -13 20 3 0 13 -9 23 -20z m-2137 -7 c-2 -10 -10 -18 -18 -18 -8 0 -16
8 -18 18 -2 12 3 17 18 17 15 0 20 -5 18 -17z m-318 -13 c0 -5 -2 -10 -4 -10
-3 0 -8 5 -11 10 -3 6 -1 10 4 10 6 0 11 -4 11 -10z m2570 -14 c0 -11 -19 -15
-25 -6 -3 5 1 10 9 10 9 0 16 -2 16 -4z m-2582 -111 c-6 -14 -13 -23 -15 -21
-5 5 15 46 22 46 3 0 -1 -11 -7 -25z m2612 -76 c12 -23 20 -43 18 -45 -3 -2
-14 17 -26 41 -27 56 -20 60 8 4z m-2654 -16 c-8 -15 -15 -25 -16 -21 0 12 23
58 27 54 3 -2 -2 -17 -11 -33z m25 -10 c-11 -21 -20 -35 -21 -31 0 12 33 78
38 74 2 -2 -6 -21 -17 -43z m1376 -10 c3 -7 -3 -9 -16 -6 -27 7 -27 -14 0 -22
30 -10 22 -50 -10 -50 -13 0 -26 6 -29 13 -3 11 0 12 16 3 14 -7 23 -8 27 -1
3 5 -5 15 -19 22 -25 11 -34 37 -19 52 11 10 46 3 50 -11z m161 6 c-12 -7 -19
-24 -20 -52 l-1 -42 -4 39 c-3 22 -12 46 -21 53 -15 11 -12 12 23 12 32 0 36
-2 23 -10z m157 -64 c16 0 21 9 26 40 l6 40 2 -47 c1 -43 -1 -48 -25 -54 -14
-4 -29 -3 -34 2 -11 12 -20 81 -11 89 3 4 8 -10 11 -32 4 -30 9 -38 25 -38z
m221 50 c15 -23 15 -27 0 -50 -11 -17 -26 -25 -46 -25 -29 0 -30 1 -30 50 0
49 1 50 30 50 20 0 35 -8 46 -25z m157 15 c-13 -5 -23 -17 -23 -25 0 -9 4 -14
8 -11 4 2 14 1 22 -5 12 -7 10 -9 -7 -9 -14 0 -23 -6 -23 -16 0 -10 6 -14 15
-11 8 4 17 2 20 -3 4 -6 -7 -10 -24 -10 -30 0 -31 1 -31 50 0 50 0 50 33 49
29 0 30 -1 10 -9z m162 -22 l20 -33 6 35 c4 19 8 33 9 30 6 -12 7 -100 1 -100
-4 0 -18 15 -32 33 l-24 32 -6 -35 c-6 -31 -7 -29 -8 18 0 28 3 52 7 52 4 0
16 -15 27 -32z m203 18 c-11 -8 -19 -28 -20 -52 l-1 -39 -4 39 c-3 22 -12 46
-21 53 -15 11 -12 12 23 12 35 0 38 -1 23 -13z m-2487 -43 c-12 -20 -14 -14
-5 12 4 9 9 14 11 11 3 -2 0 -13 -6 -23z m109 -10 c-11 -17 -11 -17 -6 0 3 10
6 24 7 30 0 9 2 9 5 0 3 -7 0 -20 -6 -30z m2560 2 c0 -5 -5 -3 -10 5 -5 8 -10
20 -10 25 0 6 5 3 10 -5 5 -8 10 -19 10 -25z m-1883 -42 c-3 -10 -5 -2 -5 17
0 19 2 27 5 18 2 -10 2 -26 0 -35z m-693 -17 c-3 -15 -8 -25 -11 -23 -2 3 -1
17 3 31 3 15 8 25 11 23 2 -3 1 -17 -3 -31z m2644 9 c-3 -3 -9 2 -12 12 -6 14
-5 15 5 6 7 -7 10 -15 7 -18z m-2761 -17 c-3 -8 -6 -5 -6 6 -1 11 2 17 5 13 3
-3 4 -12 1 -19z m203 -7 c13 -25 4 -48 -21 -54 -20 -5 -49 16 -49 37 0 35 53
48 70 17z m597 -13 c-3 -8 -6 -5 -6 6 -1 11 2 17 5 13 3 -3 4 -12 1 -19z
m1831 -11 c2 -11 -3 -17 -17 -17 -23 0 -35 15 -26 31 10 15 39 6 43 -14z
m-2639 -62 c0 -5 -4 -3 -9 5 -5 8 -9 22 -9 30 0 16 17 -16 18 -35z m2748 23
c-3 -8 -6 -5 -6 6 -1 11 2 17 5 13 3 -3 4 -12 1 -19z m103 2 c0 -5 -4 -10 -10
-10 -5 0 -10 5 -10 10 0 6 5 10 10 10 6 0 10 -4 10 -10z m-2753 -22 c-3 -8 -6
-5 -6 6 -1 11 2 17 5 13 3 -3 4 -12 1 -19z m1523 -17 c1 8 7 1 14 -16 7 -16
12 -31 11 -33 -3 -4 -75 69 -75 76 0 3 11 -5 25 -18 18 -17 25 -19 25 -9z
m1187 -3 c-3 -8 -6 -5 -6 6 -1 11 2 17 5 13 3 -3 4 -12 1 -19z m-2817 -14 c0
-8 -4 -12 -10 -9 -5 3 -10 13 -10 21 0 8 5 12 10 9 6 -3 10 -13 10 -21z m240
16 c0 -5 -4 -10 -10 -10 -5 0 -10 5 -10 10 0 6 5 10 10 10 6 0 10 -4 10 -10z
m2438 -7 c-5 -26 -38 -29 -38 -4 0 15 6 21 21 21 14 0 19 -5 17 -17z m-2581
-25 c-3 -7 -5 -2 -5 12 0 14 2 19 5 13 2 -7 2 -19 0 -25z m686 -16 c-12 -28
-14 -61 -11 -132 2 -52 3 -86 0 -75 -2 11 -23 40 -45 64 -23 24 -34 41 -24 38
10 -4 17 -1 17 6 0 7 9 -6 20 -28 l20 -40 -2 65 c-2 65 18 154 33 144 4 -2 1
-21 -8 -42z m-593 18 c0 -13 -7 -20 -20 -20 -19 0 -27 20 -13 33 13 14 33 6
33 -13z m2637 -12 c-3 -8 -6 -5 -6 6 -1 11 2 17 5 13 3 -3 4 -12 1 -19z
m-2837 -10 c0 -7 -5 -33 -11 -58 -6 -25 -15 -106 -19 -180 l-8 -135 4 160 c5
170 11 225 25 225 5 0 9 -6 9 -12z m97 -35 c-3 -10 -5 -4 -5 12 0 17 2 24 5
18 2 -7 2 -21 0 -30z m2700 15 c-3 -8 -6 -5 -6 6 -1 11 2 17 5 13 3 -3 4 -12
1 -19z m50 -10 c-3 -8 -6 -5 -6 6 -1 11 2 17 5 13 3 -3 4 -12 1 -19z m-2904
-14 c11 -11 -5 -34 -24 -34 -18 0 -26 20 -12 33 8 9 28 9 36 1z m2864 -41 c-3
-10 -5 -4 -5 12 0 17 2 24 5 18 2 -7 2 -21 0 -30z m50 0 c-3 -10 -5 -4 -5 12
0 17 2 24 5 18 2 -7 2 -21 0 -30z m-2770 -45 c-2 -13 -4 -5 -4 17 -1 22 1 32
4 23 2 -10 2 -28 0 -40z m2780 -25 c-3 -10 -5 -4 -5 12 0 17 2 24 5 18 2 -7 2
-21 0 -30z m-50 -5 c-3 -7 -5 -2 -5 12 0 14 2 19 5 13 2 -7 2 -19 0 -25z
m-1010 -55 c-3 -10 -5 -2 -5 17 0 19 2 27 5 18 2 -10 2 -26 0 -35z m1070 -150
c-2 -32 -3 -8 -3 52 0 61 1 87 3 58 2 -29 2 -78 0 -110z m-2080 105 c-3 -8 -6
-5 -6 6 -1 11 2 17 5 13 3 -3 4 -12 1 -19z m1038 -86 c-5 -6 -25 71 -24 93 0
11 7 -5 14 -35 7 -30 12 -57 10 -58z m992 -4 c-2 -24 -4 -7 -4 37 0 44 2 63 4
43 2 -21 2 -57 0 -80z m126 76 c-3 -8 -12 -14 -19 -14 -20 0 -30 30 -13 40 17
11 40 -7 32 -26z m-233 -14 c0 -5 -4 -10 -10 -10 -5 0 -10 5 -10 10 0 6 5 10
10 10 6 0 10 -4 10 -10z m-2633 -112 c-2 -13 -4 -3 -4 22 0 25 2 35 4 23 2
-13 2 -33 0 -45z m-187 42 c0 -5 -4 -10 -10 -10 -5 0 -10 5 -10 10 0 6 5 10
10 10 6 0 10 -4 10 -10z m260 -14 c0 -8 -5 -18 -10 -21 -13 -8 -42 14 -34 26
9 15 44 10 44 -5z m2810 -6 c0 -13 -7 -20 -20 -20 -19 0 -27 20 -13 33 13 14
33 6 33 -13z m-3055 -72 c9 -25 -13 -50 -39 -46 -24 3 -34 41 -16 63 14 17 48
8 55 -17z m2902 -25 c-3 -10 -5 -2 -5 17 0 19 2 27 5 18 2 -10 2 -26 0 -35z
m-2780 -20 c-3 -10 -5 -2 -5 17 0 19 2 27 5 18 2 -10 2 -26 0 -35z m60 15 c-3
-7 -5 -2 -5 12 0 14 2 19 5 13 2 -7 2 -19 0 -25z m2770 -10 c-3 -7 -5 -2 -5
12 0 14 2 19 5 13 2 -7 2 -19 0 -25z m53 22 c0 -5 -4 -10 -10 -10 -5 0 -10 5
-10 10 0 6 5 10 10 10 6 0 10 -4 10 -10z m-2813 -62 c-3 -8 -6 -5 -6 6 -1 11
2 17 5 13 3 -3 4 -12 1 -19z m2700 -10 c-3 -7 -5 -2 -5 12 0 14 2 19 5 13 2
-7 2 -19 0 -25z m-2760 -20 c-3 -7 -5 -2 -5 12 0 14 2 19 5 13 2 -7 2 -19 0
-25z m2810 10 c-3 -8 -6 -5 -6 6 -1 11 2 17 5 13 3 -3 4 -12 1 -19z m-2740
-30 c-3 -8 -6 -5 -6 6 -1 11 2 17 5 13 3 -3 4 -12 1 -19z m2680 0 c-3 -8 -6
-5 -6 6 -1 11 2 17 5 13 3 -3 4 -12 1 -19z m-857 -18 c-11 -20 -10 -21 12 -15
20 7 19 3 -11 -29 -19 -20 -36 -34 -38 -32 -2 1 6 26 18 55 12 28 24 50 26 47
3 -2 -1 -14 -7 -26z m-1883 -2 c-3 -8 -6 -5 -6 6 -1 11 2 17 5 13 3 -3 4 -12
1 -19z m2790 0 c-3 -8 -6 -5 -6 6 -1 11 2 17 5 13 3 -3 4 -12 1 -19z m-10 -40
c-3 -8 -6 -5 -6 6 -1 11 2 17 5 13 3 -3 4 -12 1 -19z m-13 -52 c-3 -15 -8 -25
-11 -23 -2 3 -1 17 3 31 3 15 8 25 11 23 2 -3 1 -17 -3 -31z m-2134 -36 c0
-27 3 -30 30 -30 27 0 30 3 30 31 0 19 4 29 12 27 7 -3 12 -28 12 -68 0 -40
-5 -65 -12 -68 -8 -2 -12 8 -12 27 0 28 -3 31 -30 31 -27 0 -30 -3 -30 -31 0
-20 -4 -29 -12 -27 -13 5 -24 99 -14 124 10 25 26 15 26 -16z m262 -21 c6 -95
68 -93 68 2 0 27 5 49 10 49 6 0 10 -23 10 -52 0 -56 -19 -88 -53 -88 -38 0
-57 29 -57 87 0 68 18 70 22 2z m325 39 c14 -18 14 -111 0 -120 -7 -4 -27 -8
-44 -8 l-33 0 0 70 0 70 34 0 c18 0 38 -6 43 -12z m1474 -42 c-14 -36 -22 -33
-9 5 6 16 12 28 14 26 3 -2 0 -16 -5 -31z m-884 -38 c-3 -7 -5 -2 -5 12 0 14
2 19 5 13 2 -7 2 -19 0 -25z m-1667 -33 c0 -5 -5 -3 -10 5 -5 8 -10 20 -10 25
0 6 5 3 10 -5 5 -8 10 -19 10 -25z m2566 -22 c-8 -15 -15 -25 -16 -21 0 12 23
58 27 54 3 -2 -2 -17 -11 -33z m-919 -15 c-3 -8 -6 -5 -6 6 -1 11 2 17 5 13 3
-3 4 -12 1 -19z m-1613 -34 c3 -8 2 -12 -4 -9 -6 3 -10 10 -10 16 0 14 7 11
14 -7z m2295 -50 c-12 -15 -39 -8 -39 11 0 18 22 25 38 12 9 -7 9 -13 1 -23z
m194 11 c-3 -9 -8 -14 -10 -11 -3 3 -2 9 2 15 9 16 15 13 8 -4z m-73 -35 c-6
-11 -13 -20 -16 -20 -2 0 0 9 6 20 6 11 13 20 16 20 2 0 0 -9 -6 -20z m-2282
-23 c3 -12 -3 -17 -22 -17 -25 0 -35 18 -19 34 12 12 38 2 41 -17z m2097 -22
c0 -27 -3 -30 -30 -30 -21 0 -31 5 -33 18 -5 25 17 49 42 45 16 -2 21 -10 21
-33z m-2155 -15 c6 -11 8 -20 6 -20 -3 0 -10 9 -16 20 -6 11 -8 20 -6 20 3 0
10 -9 16 -20z m2354 -10 c-10 -16 -20 -28 -22 -26 -4 5 28 56 35 56 2 0 -4
-13 -13 -30z m-64 -10 c-6 -11 -13 -20 -16 -20 -2 0 0 9 6 20 6 11 13 20 16
20 2 0 0 -9 -6 -20z m-2170 -16 c0 -19 -28 -30 -42 -16 -8 8 -8 15 1 26 14 17
41 10 41 -10z m-265 -14 c3 -5 -1 -10 -10 -10 -9 0 -13 5 -10 10 3 6 8 10 10
10 2 0 7 -4 10 -10z m200 -27 l18 -28 -21 19 c-12 11 -22 23 -22 28 0 14 7 9
25 -19z m2215 23 c0 -2 -8 -10 -17 -17 -16 -13 -17 -12 -4 4 13 16 21 21 21
13z m-170 -16 c0 -5 -4 -10 -10 -10 -5 0 -10 5 -10 10 0 6 5 10 10 10 6 0 10
-4 10 -10z m130 -34 c0 -2 -8 -10 -17 -17 -16 -13 -17 -12 -4 4 13 16 21 21
21 13z m-2341 -19 c13 -16 5 -27 -21 -27 -18 0 -25 20 -11 33 10 10 19 8 32
-6z m2343 -44 c-28 -32 -67 -74 -88 -93 -21 -19 0 7 46 58 92 101 121 126 42
35z m-32 24 c0 -1 -37 -38 -82 -82 l-83 -80 80 83 c74 76 85 87 85 79z m143
-21 c7 -18 -1 -26 -25 -26 -18 0 -25 20 -11 33 11 12 31 8 36 -7z m-2177 -48
l29 -33 -32 29 c-18 17 -33 31 -33 33 0 8 8 1 36 -29z m-236 2 c0 -5 -4 -10
-10 -10 -5 0 -10 5 -10 10 0 6 5 10 10 10 6 0 10 -4 10 -10z m2348 -33 c2 -12
-3 -17 -17 -17 -12 0 -21 6 -21 13 0 31 32 34 38 4z m-1988 -85 c0 -7 -56 36
-75 59 -11 12 1 5 28 -16 26 -22 47 -41 47 -43z m1928 15 c2 -11 -3 -17 -16
-17 -24 0 -32 8 -25 26 7 20 37 13 41 -9z m-128 10 c0 -2 -12 -14 -27 -28
l-28 -24 24 28 c23 25 31 32 31 24z m206 -8 c3 -6 0 -17 -7 -25 -18 -17 -44
-2 -36 20 7 18 33 21 43 5z m-141 -29 c3 -5 2 -10 -4 -10 -5 0 -13 5 -16 10
-3 6 -2 10 4 10 5 0 13 -4 16 -10z m-130 -20 c-3 -5 -16 -15 -28 -21 -19 -9
-19 -8 3 10 28 23 34 26 25 11z m-1615 -57 c0 -7 -39 17 -46 28 -3 6 5 3 20
-6 14 -10 26 -19 26 -22z m1538 4 c-29 -24 -98 -66 -86 -52 10 11 102 74 108
74 3 0 -7 -10 -22 -22z m-1215 -38 c15 -24 1 -49 -27 -49 -31 0 -40 14 -32 46
8 29 42 30 59 3z m1067 -14 c0 -6 -97 -55 -107 -55 -4 1 17 14 47 30 61 32 60
32 60 25z m50 -9 c0 -2 -7 -7 -16 -10 -8 -3 -12 -2 -9 4 6 10 25 14 25 6z
m-1260 -36 c19 -11 31 -19 25 -19 -5 0 -26 8 -45 19 -19 11 -30 19 -25 19 6 0
26 -8 45 -19z m234 2 c9 -14 -12 -35 -28 -29 -23 9 -20 37 3 37 11 0 22 -4 25
-8z m1086 -2 c0 -5 -4 -10 -10 -10 -5 0 -10 5 -10 10 0 6 5 10 10 10 6 0 10
-4 10 -10z m-250 -24 c-14 -7 -36 -16 -50 -20 -14 -3 -7 3 15 13 45 22 73 27
35 7z m80 4 c-8 -5 -19 -10 -25 -10 -5 0 -3 5 5 10 8 5 20 10 25 10 6 0 3 -5
-5 -10z m128 -37 c5 -17 -26 -29 -40 -15 -6 6 -7 15 -3 22 9 14 37 9 43 -7z
m42 1 c0 -8 -5 -12 -10 -9 -6 4 -8 11 -5 16 9 14 15 11 15 -7z m-393 -20 c-3
-3 -12 -4 -19 -1 -8 3 -5 6 6 6 11 1 17 -2 13 -5z m266 0 c11 -11 -5 -34 -24
-34 -18 0 -26 20 -12 33 8 9 28 9 36 1z m-256 -20 c-3 -3 -12 -4 -19 -1 -8 3
-5 6 6 6 11 1 17 -2 13 -5z m-40 -10 c-3 -3 -12 -4 -19 -1 -8 3 -5 6 6 6 11 1
17 -2 13 -5z m-40 -10 c-3 -3 -12 -4 -19 -1 -8 3 -5 6 6 6 11 1 17 -2 13 -5z
m-54 -11 c-7 -2 -19 -2 -25 0 -7 3 -2 5 12 5 14 0 19 -2 13 -5z m-686 -19 c9
-23 -13 -40 -32 -24 -12 10 -13 16 -4 26 15 18 28 18 36 -2z m610 10 c-3 -3
-12 -4 -19 -1 -8 3 -5 6 6 6 11 1 17 -2 13 -5z m-124 -11 c-29 -2 -77 -2 -105
0 -29 2 -6 3 52 3 58 0 81 -1 53 -3z"/>
<path d="M3346 3572 c-3 -5 1 -9 9 -9 8 0 12 4 9 9 -3 4 -7 8 -9 8 -2 0 -6 -4
-9 -8z"/>
<path d="M3801 2860 c0 -8 4 -24 9 -35 5 -13 9 -14 9 -5 0 8 -4 24 -9 35 -5
13 -9 14 -9 5z"/>
<path d="M2778 1093 c7 -3 16 -2 19 1 4 3 -2 6 -13 5 -11 0 -14 -3 -6 -6z"/>
<path d="M3056 3003 c-3 -3 -6 -19 -6 -35 0 -25 4 -29 23 -26 29 4 35 43 9 57
-11 6 -22 7 -26 4z"/>
<path d="M2310 1990 c0 -16 5 -21 23 -18 12 2 22 10 22 18 0 8 -10 16 -22 18
-18 3 -23 -2 -23 -18z"/>
<path d="M2310 1930 c0 -15 7 -20 25 -20 18 0 25 5 25 20 0 15 -7 20 -25 20
-18 0 -25 -5 -25 -20z"/>
</g>
</svg>
